<?xml version="1.0" encoding="UTF-8"?> <svg xmlns="http://www.w3.org/2000/svg" width="294" height="73" viewBox="0 0 294 73" fill="none"><path d="M103.203 15.7136V52.4366H96.0619V49.1724C95.1438 50.4305 93.9877 51.4336 92.5936 52.1816C91.1995 52.8957 89.6864 53.2527 88.0543 53.2527C85.9801 53.2527 84.0079 52.8787 82.1378 52.1306C80.3016 51.3486 78.7035 50.2945 77.3434 48.9684C75.9833 47.6423 74.8952 46.0951 74.0791 44.327C73.297 42.5588 72.906 40.6717 72.906 38.6655C72.906 36.6593 73.297 34.7722 74.0791 33.004C74.8952 31.2359 75.9833 29.6888 77.3434 28.3627C78.7035 27.0366 80.3016 25.9995 82.1378 25.2514C83.9739 24.4693 85.9291 24.0783 88.0033 24.0783C89.4654 24.0783 90.8255 24.3333 92.0836 24.8434C93.3757 25.3194 94.5318 25.9995 95.5519 26.8835V15.7136H103.203ZM80.5566 38.6655C80.5566 39.7196 80.7607 40.7227 81.1687 41.6748C81.5767 42.5928 82.1208 43.3919 82.8008 44.072C83.4809 44.752 84.2799 45.2961 85.198 45.7041C86.1501 46.1121 87.1532 46.3161 88.2073 46.3161C89.2614 46.3161 90.2474 46.1121 91.1655 45.7041C92.1176 45.2961 92.9337 44.752 93.6137 44.072C94.2938 43.3919 94.8378 42.5928 95.2458 41.6748C95.6539 40.7227 95.8579 39.7196 95.8579 38.6655C95.8579 37.6114 95.6539 36.6253 95.2458 35.7073C94.8378 34.7552 94.2938 33.9391 93.6137 33.2591C92.9337 32.579 92.1176 32.035 91.1655 31.6269C90.2474 31.2189 89.2614 31.0149 88.2073 31.0149C87.1532 31.0149 86.1501 31.2189 85.198 31.6269C84.2799 32.035 83.4809 32.579 82.8008 33.2591C82.1208 33.9391 81.5767 34.7552 81.1687 35.7073C80.7607 36.6253 80.5566 37.6114 80.5566 38.6655Z" fill="#020659"></path><path d="M121.924 24.0783C124.032 24.0783 126.005 24.4693 127.841 25.2514C129.677 25.9995 131.275 27.0366 132.635 28.3627C133.995 29.6888 135.066 31.2359 135.848 33.004C136.664 34.7722 137.072 36.6593 137.072 38.6655V52.4366H129.932V49.0194C129.048 50.3115 127.909 51.3486 126.515 52.1306C125.12 52.8787 123.59 53.2527 121.924 53.2527C119.85 53.2527 117.878 52.8787 116.008 52.1306C114.172 51.3486 112.573 50.2945 111.213 48.9684C109.853 47.6423 108.765 46.0951 107.949 44.327C107.167 42.5588 106.776 40.6717 106.776 38.6655C106.776 36.6593 107.167 34.7722 107.949 33.004C108.765 31.2359 109.853 29.6888 111.213 28.3627C112.573 27.0366 114.172 25.9995 116.008 25.2514C117.878 24.4693 119.85 24.0783 121.924 24.0783ZM122.077 46.3161C123.131 46.3161 124.117 46.1121 125.035 45.7041C125.988 45.2961 126.804 44.752 127.484 44.072C128.164 43.3919 128.708 42.5928 129.116 41.6748C129.524 40.7227 129.728 39.7196 129.728 38.6655C129.728 37.6114 129.524 36.6253 129.116 35.7073C128.708 34.7552 128.164 33.9391 127.484 33.2591C126.804 32.579 125.988 32.035 125.035 31.6269C124.117 31.2189 123.131 31.0149 122.077 31.0149C121.023 31.0149 120.02 31.2189 119.068 31.6269C118.15 32.035 117.351 32.579 116.671 33.2591C115.991 33.9391 115.447 34.7552 115.039 35.7073C114.631 36.6253 114.427 37.6114 114.427 38.6655C114.427 39.7196 114.631 40.7227 115.039 41.6748C115.447 42.5928 115.991 43.3919 116.671 44.072C117.351 44.752 118.15 45.2961 119.068 45.7041C120.02 46.1121 121.023 46.3161 122.077 46.3161Z" fill="#020659"></path><path d="M148.927 15.7136V24.8944H156.577V31.4229H148.927V38.6655C148.927 39.7196 149.131 40.7227 149.539 41.6748C149.947 42.5928 150.491 43.3919 151.171 44.072C151.851 44.752 152.65 45.2961 153.568 45.7041C154.52 46.1121 155.523 46.3161 156.577 46.3161V53.2527H155.557C153.449 53.2527 151.511 52.8787 149.743 52.1306C148.008 51.3486 146.512 50.2945 145.254 48.9684C143.996 47.6423 143.01 46.0951 142.296 44.327C141.616 42.5588 141.276 40.6717 141.276 38.6655V15.7136H148.927Z" fill="#020659"></path><path d="M175.02 24.0783C177.129 24.0783 179.101 24.4693 180.937 25.2514C182.773 25.9995 184.371 27.0366 185.731 28.3627C187.091 29.6888 188.162 31.2359 188.945 33.004C189.761 34.7722 190.169 36.6593 190.169 38.6655V52.4366H183.028V49.0194C182.144 50.3115 181.005 51.3486 179.611 52.1306C178.217 52.8787 176.687 53.2527 175.02 53.2527C172.946 53.2527 170.974 52.8787 169.104 52.1306C167.268 51.3486 165.67 50.2945 164.31 48.9684C162.949 47.6423 161.861 46.0951 161.045 44.327C160.263 42.5588 159.872 40.6717 159.872 38.6655C159.872 36.6593 160.263 34.7722 161.045 33.004C161.861 31.2359 162.949 29.6888 164.31 28.3627C165.67 27.0366 167.268 25.9995 169.104 25.2514C170.974 24.4693 172.946 24.0783 175.02 24.0783ZM175.173 46.3161C176.227 46.3161 177.214 46.1121 178.132 45.7041C179.084 45.2961 179.9 44.752 180.58 44.072C181.26 43.3919 181.804 42.5928 182.212 41.6748C182.62 40.7227 182.824 39.7196 182.824 38.6655C182.824 37.6114 182.62 36.6253 182.212 35.7073C181.804 34.7552 181.26 33.9391 180.58 33.2591C179.9 32.579 179.084 32.035 178.132 31.6269C177.214 31.2189 176.227 31.0149 175.173 31.0149C174.119 31.0149 173.116 31.2189 172.164 31.6269C171.246 32.035 170.447 32.579 169.767 33.2591C169.087 33.9391 168.543 34.7552 168.135 35.7073C167.727 36.6253 167.523 37.6114 167.523 38.6655C167.523 39.7196 167.727 40.7227 168.135 41.6748C168.543 42.5928 169.087 43.3919 169.767 44.072C170.447 44.752 171.246 45.2961 172.164 45.7041C173.116 46.1121 174.119 46.3161 175.173 46.3161Z" fill="#020659"></path><path d="M202.023 15.7136V24.8944H209.673V31.4229H202.023V38.6655C202.023 39.7196 202.227 40.7227 202.635 41.6748C203.043 42.5928 203.587 43.3919 204.267 44.072C204.947 44.752 205.746 45.2961 206.664 45.7041C207.616 46.1121 208.619 46.3161 209.673 46.3161V53.2527H208.653C206.545 53.2527 204.607 52.8787 202.839 52.1306C201.105 51.3486 199.609 50.2945 198.35 48.9684C197.092 47.6423 196.106 46.0951 195.392 44.327C194.712 42.5588 194.372 40.6717 194.372 38.6655V15.7136H202.023Z" fill="#020659"></path><path d="M214.243 38.6655C214.243 36.6593 214.583 34.7722 215.264 33.004C215.978 31.2359 216.964 29.6888 218.222 28.3627C219.48 27.0366 220.976 25.9995 222.71 25.2514C224.478 24.4693 226.416 24.0783 228.525 24.0783H229.545V31.0149C228.491 31.0149 227.488 31.2189 226.535 31.6269C225.617 32.035 224.818 32.579 224.138 33.2591C223.458 33.9391 222.914 34.7552 222.506 35.7073C222.098 36.6253 221.894 37.6114 221.894 38.6655V52.4366H214.243V38.6655Z" fill="#020659"></path><path d="M261.746 38.6655C261.746 40.6717 261.338 42.5588 260.522 44.327C259.74 46.0951 258.652 47.6423 257.258 48.9684C255.898 50.2945 254.3 51.3486 252.464 52.1306C250.627 52.8787 248.655 53.2527 246.547 53.2527C244.439 53.2527 242.467 52.8787 240.631 52.1306C238.794 51.3486 237.179 50.2945 235.785 48.9684C234.425 47.6423 233.337 46.0951 232.521 44.327C231.739 42.5588 231.348 40.6717 231.348 38.6655C231.348 36.6593 231.739 34.7722 232.521 33.004C233.337 31.2359 234.425 29.6888 235.785 28.3627C237.179 27.0366 238.794 25.9995 240.631 25.2514C242.467 24.4693 244.439 24.0783 246.547 24.0783C248.655 24.0783 250.627 24.4693 252.464 25.2514C254.3 25.9995 255.898 27.0366 257.258 28.3627C258.652 29.6888 259.74 31.2359 260.522 33.004C261.338 34.7722 261.746 36.6593 261.746 38.6655ZM254.096 38.6655C254.096 37.6114 253.892 36.6253 253.484 35.7073C253.11 34.7552 252.583 33.9391 251.902 33.2591C251.222 32.579 250.423 32.035 249.505 31.6269C248.587 31.2189 247.601 31.0149 246.547 31.0149C245.493 31.0149 244.507 31.2189 243.589 31.6269C242.671 32.035 241.872 32.579 241.192 33.2591C240.512 33.9391 239.967 34.7552 239.559 35.7073C239.185 36.6253 238.998 37.6114 238.998 38.6655C238.998 39.7196 239.185 40.7227 239.559 41.6748C239.967 42.5928 240.512 43.3919 241.192 44.072C241.872 44.752 242.671 45.2961 243.589 45.7041C244.507 46.1121 245.493 46.3161 246.547 46.3161C247.601 46.3161 248.587 46.1121 249.505 45.7041C250.423 45.2961 251.222 44.752 251.902 44.072C252.583 43.3919 253.11 42.5928 253.484 41.6748C253.892 40.7227 254.096 39.7196 254.096 38.6655Z" fill="#020659"></path><path d="M265.048 38.6655C265.048 36.6593 265.388 34.7722 266.068 33.004C266.783 31.2359 267.769 29.6888 269.027 28.3627C270.285 27.0366 271.781 25.9995 273.515 25.2514C275.283 24.4693 277.221 24.0783 279.33 24.0783C281.438 24.0783 283.359 24.4693 285.093 25.2514C286.861 25.9995 288.374 27.0366 289.632 28.3627C290.891 29.6888 291.86 31.2359 292.54 33.004C293.254 34.7722 293.611 36.6593 293.611 38.6655V52.4366H285.96V38.6655C285.96 37.6114 285.807 36.6253 285.501 35.7073C285.229 34.7552 284.804 33.9391 284.226 33.2591C283.682 32.579 282.985 32.035 282.135 31.6269C281.319 31.2189 280.384 31.0149 279.33 31.0149C278.275 31.0149 277.323 31.2189 276.473 31.6269C275.657 32.035 274.96 32.579 274.382 33.2591C273.838 33.9391 273.413 34.7552 273.107 35.7073C272.835 36.6253 272.699 37.6114 272.699 38.6655V52.4366H265.048V38.6655Z" fill="#020659"></path><path d="M30.5928 36.9976L20 30.8826V43.0513L30.5928 49.1663V36.9976Z" fill="#B145BF"></path><path d="M30.9915 36.2889L41.6384 30.1426L30.9999 24L20.3542 30.1462L30.9915 36.2889Z" fill="#66ADD9"></path><path d="M31.4072 36.9875V49.1659L42.0001 43.0509V30.8713L31.4072 36.9875Z" fill="#6B54BF"></path><path d="M11.12 24.473L28.192 14.6161L17.073 8.19604L0 18.053V54.16L11.12 60.58V24.473Z" fill="#B145BF"></path><path d="M51.419 24.473V44.195L62.539 37.775V18.053L31.269 0L20.146 6.422L51.419 24.473Z" fill="#66ADD9"></path><path d="M31.269 59.373L14.192 49.512V62.353L31.269 72.212L62.538 54.16V41.323L31.269 59.373Z" fill="#6B54BF"></path></svg> 